<mxfile host="app.diagrams.net" modified="2023-05-07T08:42:13.116Z" agent="Mozilla/5.0 (Macintosh; Intel Mac OS X 10.15; rv:109.0) Gecko/20100101 Firefox/112.0" etag="o15AA6pbhdnE-Kkwu7Ss" version="21.2.9" type="device">
  <diagram name="Page-1" id="wwz4Hl0pMVWZclN4tWit">
    <mxGraphModel dx="1706" dy="777" grid="0" gridSize="10" guides="1" tooltips="1" connect="1" arrows="1" fold="1" page="0" pageScale="1" pageWidth="850" pageHeight="1100" math="0" shadow="0">
      <root>
        <mxCell id="0" />
        <mxCell id="1" parent="0" />
        <mxCell id="XfLr7eq2wdfiriw6Ghye-3" value="" style="shape=image;verticalLabelPosition=bottom;labelBackgroundColor=default;verticalAlign=top;aspect=fixed;imageAspect=0;image=data:image/png,iVBORw0KGgoAAAANSUhEUgAAAI4AAACICAYAAAAxpNMVAAAKrWlDQ1BJQ0MgUHJvZmlsZQAASImVlwdUU+kSgP9700NCS4h0Qg1FegsgJYQWiiAdRCUkAUIJMRAU7MriCq4FFRGwgK4KKLgqRVRURLEtggp2F2QRUdbFgqiovAscwu6+8947b86ZM9+dzD8z/3/unzMXALIiVyxOgxUBSBdlSUJ9PenRMbF03CBAAyIgACzAc3mZYlZISCBAZMb+XT72AGjS3jWfzPXvv/9XUeILMnkAQCEIJ/AzeekIn0b0FU8syQIAdQDx6y/LEk9yG8JUCdIgwg8mOWmahyc5YYrRYComPJSNMBUAPInLlSQBQKIjfno2LwnJQ/JA2ErEF4oQFiPslp6ewUf4BMLGSAziI03mZyb8JU/S33ImyHJyuUkynt7LlOC9hJniNG7O/3kc/1vS06QzNYwQJSVL/EIRq4yc2YPUjAAZixLmB8+wkD8VP8XJUr+IGeZlsmNnmM/1CpCtTZsfOMOJQh+OLE8WJ3yGBZneYTMsyQiV1UqUsFkzzJXM1pWmRsj8yQKOLH9ucnjUDGcLI+fPcGZqWMBsDFvml0hDZf0LRL6es3V9ZHtPz/zLfoUc2dqs5HA/2d65s/0LRKzZnJnRst74Ai/v2ZgIWbw4y1NWS5wWIosXpPnK/JnZYbK1WcgLObs2RHaGKVz/kBkGbJAB0hCVADoIRJ68AMgSLM+a3Ag7Q5wjESYlZ9FZyA0T0DkinsVcuo2VjS0Ak/d1+nV4T5u6hxDtxqxvQz0Ari0TExNnZ30B2wA4xQCA2DnrY2wHQEEDgGsVPKkke9o3dZcwyP+AAqACNaAN9IExMAc2wAG4AA/gDfxBMAgHMWAx4IFkkI50vgysBOtAPigE28AuUAr2g4PgKDgOToJGcA5cAlfBTdAJusFj0AsGwGswAj6CcQiCcBAZokBqkA5kCJlBNhATcoO8oUAoFIqB4qEkSARJoZXQBqgQKoJKoQqoCvoFOgNdgq5DXdBDqA8agt5BX2AUTIKpsBZsBFvCTJgFB8Dh8CI4CV4K58J58Ba4BK6Ej8EN8CX4JtwN98Kv4VEUQMmhaChdlDmKiWKjglGxqESUBLUaVYAqRlWialHNqHbUXVQvahj1GY1FU9B0tDnaBe2HjkDz0EvRq9Gb0aXoo+gGdBv6LroPPYL+jiFjNDFmGGcMBxONScIsw+RjijGHMfWYK5huzADmIxaLpWEZWEesHzYGm4Jdgd2M3Yutw17EdmH7saM4HE4NZ4ZzxQXjuLgsXD5uD+4Y7gLuDm4A9wkvh9fB2+B98LF4EX49vhhfjW/B38EP4scJigRDgjMhmMAn5BC2Eg4Rmgm3CQOEcaISkUF0JYYTU4jriCXEWuIV4hPiezk5OT05J7kFckK5tXIlcifkrsn1yX0mKZNMSWxSHElK2kI6QrpIekh6TyaTjcge5FhyFnkLuYp8mfyM/EmeIm8hz5Hny6+RL5NvkL8j/0aBoGCowFJYrJCrUKxwSuG2wrAiQdFIka3IVVytWKZ4RvG+4qgSRclaKVgpXWmzUrXSdaWXyjhlI2VvZb5ynvJB5cvK/RQURZ/CpvAoGyiHKFcoA1QslUHlUFOohdTj1A7qiIqyip1KpMpylTKV8yq9NBTNiMahpdG20k7Semhf5mjNYc0RzNk0p3bOnTljqhqqHqoC1QLVOtVu1S9qdDVvtVS17WqNak/V0eqm6gvUl6nvU7+iPqxB1XDR4GkUaJzUeKQJa5pqhmqu0DyoeUtzVEtby1dLrLVH67LWsDZN20M7RXundov2kA5Fx01HqLNT54LOK7oKnUVPo5fQ2+gjupq6frpS3QrdDt1xPYZehN56vTq9p/pEfaZ+ov5O/Vb9EQMdgyCDlQY1Bo8MCYZMw2TD3YbthmNGDKMoo41GjUYvGaoMDiOXUcN4Ykw2djdealxpfM8Ea8I0STXZa9JpCpvamyablpneNoPNHMyEZnvNuuZi5jrNFc2tnHvfnGTOMs82rzHvs6BZBFqst2i0eGNpYBlrud2y3fK7lb1VmtUhq8fWytb+1uutm63f2Zja8GzKbO7Zkm19bNfYNtm+tTOzE9jts3tgT7EPst9o32r/zcHRQeJQ6zDkaOAY71jueJ9JZYYwNzOvOWGcPJ3WOJ1z+uzs4JzlfNL5Txdzl1SXapeX8xjzBPMOzet31XPlula49rrR3eLdDrj1uuu6c90r3Z976HvwPQ57DLJMWCmsY6w3nlaeEs96zzG2M3sV+6IXysvXq8Crw1vZO8K71PuZj55Pkk+Nz4ivve8K34t+GL8Av+1+9zlaHB6nijPi7+i/yr8tgBQQFlAa8DzQNFAS2BwEB/kH7Qh6Mt9wvmh+YzAI5gTvCH4awghZGnJ2AXZByIKyBS9CrUNXhraHUcKWhFWHfQz3DN8a/jjCOEIa0RqpEBkXWRU5FuUVVRTVG20ZvSr6Zox6jDCmKRYXGxl7OHZ0offCXQsH4uzj8uN6FjEWLV90fbH64rTF55coLOEuORWPiY+Kr47/yg3mVnJHEzgJ5QkjPDZvN+8134O/kz8kcBUUCQYTXROLEl8muSbtSBpKdk8uTh4WsoWlwrcpfin7U8ZSg1OPpE6kRaXVpePT49PPiJRFqaK2DO2M5RldYjNxvrh3qfPSXUtHJAGSw5lQ5qLMpiwqMhjdkhpLf5D2Zbtll2V/Wha57NRypeWi5bdyTHM25Qzm+uT+vAK9greidaXuynUr+1axVlWshlYnrG5do78mb83AWt+1R9cR16Wu+3W91fqi9R82RG1oztPKW5vX/4PvDzX58vmS/PsbXTbu/xH9o/DHjk22m/Zs+l7AL7hRaFVYXPh1M2/zjZ+sfyr5aWJL4paOrQ5b923DbhNt69nuvv1okVJRblH/jqAdDTvpOwt2fti1ZNf1Yrvi/buJu6W7e0sCS5r2GOzZtudraXJpd5lnWV25Zvmm8rG9/L139nnsq92vtb9w/5cDwgMPKnwrGiqNKosPYg9mH3xxKPJQ+8/Mn6sOqx8uPPztiOhI79HQo21VjlVV1ZrVW2vgGmnN0LG4Y53HvY431ZrXVtTR6gpPgBPSE69+if+l52TAydZTzFO1pw1Pl9dT6gsaoIachpHG5MbeppimrjP+Z1qbXZrrz1qcPXJO91zZeZXzW1uILXktExdyL4xeFF8cvpR0qb91Sevjy9GX77UtaOu4EnDl2lWfq5fbWe0XrrleO3fd+fqZG8wbjTcdbjbcsr9V/6v9r/UdDh0Ntx1vN3U6dTZ3zetqueN+59Jdr7tX73Hu3eye393VE9Hz4H7c/d4H/AcvH6Y9fPso+9H447VPME8Knio+LX6m+azyN5Pf6nodes/3efXdeh72/HE/r//175m/fx3Ie0F+UTyoM1j10ubluSGfoc5XC18NvBa/Hh/O/0Ppj/I3xm9O/+nx562R6JGBt5K3E+82v1d7f+SD3YfW0ZDRZx/TP46PFXxS+3T0M/Nz+5eoL4Pjy77ivpZ8M/nW/D3g+5OJ9IkJMVfCnRoFUIjCiYkAvDsCADkGAEonMj8snJ6npwSa/gaYIvCfeHrmnhIHAGoRMzkWsS8CcAJRIw8A5JHnyZEo3APAtrYynZl9p+b0ScEiXywHvCbp4Y6FMzllMj3D/6Xvf1owmdUO/NP+C9dyBhT0MPSSAAAAomVYSWZNTQAqAAAACAAGAQYAAwAAAAEAAgAAARIAAwAAAAEAAQAAARoABQAAAAEAAABWARsABQAAAAEAAABeASgAAwAAAAEAAgAAh2kABAAAAAEAAABmAAAAAAAAAJAAAAABAAAAkAAAAAEAA5KGAAcAAAASAAAAkKACAAQAAAABAAAAjqADAAQAAAABAAAAiAAAAABBU0NJSQAAAFNjcmVlbnNob3TQCpavAAAACXBIWXMAABYlAAAWJQFJUiTwAAADU2lUWHRYTUw6Y29tLmFkb2JlLnhtcAAAAAAAPHg6eG1wbWV0YSB4bWxuczp4PSJhZG9iZTpuczptZXRhLyIgeDp4bXB0az0iWE1QIENvcmUgNi4wLjAiPgogICA8cmRmOlJERiB4bWxuczpyZGY9Imh0dHA6Ly93d3cudzMub3JnLzE5OTkvMDIvMjItcmRmLXN5bnRheC1ucyMiPgogICAgICA8cmRmOkRlc2NyaXB0aW9uIHJkZjphYm91dD0iIgogICAgICAgICAgICB4bWxuczp0aWZmPSJodHRwOi8vbnMuYWRvYmUuY29tL3RpZmYvMS4wLyIKICAgICAgICAgICAgeG1sbnM6ZXhpZj0iaHR0cDovL25zLmFkb2JlLmNvbS9leGlmLzEuMC8iPgogICAgICAgICA8dGlmZjpDb21wcmVzc2lvbj4xPC90aWZmOkNvbXByZXNzaW9uPgogICAgICAgICA8dGlmZjpSZXNvbHV0aW9uVW5pdD4yPC90aWZmOlJlc29sdXRpb25Vbml0PgogICAgICAgICA8dGlmZjpYUmVzb2x1dGlvbj4xNDQ8L3RpZmY6WFJlc29sdXRpb24+CiAgICAgICAgIDx0aWZmOllSZXNvbHV0aW9uPjE0NDwvdGlmZjpZUmVzb2x1dGlvbj4KICAgICAgICAgPHRpZmY6UGhvdG9tZXRyaWNJbnRlcnByZXRhdGlvbj4yPC90aWZmOlBob3RvbWV0cmljSW50ZXJwcmV0YXRpb24+CiAgICAgICAgIDx0aWZmOk9yaWVudGF0aW9uPjE8L3RpZmY6T3JpZW50YXRpb24+CiAgICAgICAgIDxleGlmOlBpeGVsWERpbWVuc2lvbj4xNDI8L2V4aWY6UGl4ZWxYRGltZW5zaW9uPgogICAgICAgICA8ZXhpZjpVc2VyQ29tbWVudD5TY3JlZW5zaG90PC9leGlmOlVzZXJDb21tZW50PgogICAgICAgICA8ZXhpZjpQaXhlbFlEaW1lbnNpb24+MTM2PC9leGlmOlBpeGVsWURpbWVuc2lvbj4KICAgICAgPC9yZGY6RGVzY3JpcHRpb24+CiAgIDwvcmRmOlJERj4KPC94OnhtcG1ldGE+CuXJxykAABn+SURBVHgB7V0JeBXVvf9nIYSEkN0AISgC1g2QflSfohXrh0p9ahXXSp+7rVVRXFisWJ9LBX1uKOpTxA2sdaO1KgitqCAouABPBQVkD4QsJCEkJGzv/5t4wty5Z+bOzJ0zMzfc//clc2fm7Oc35/y3c07KPiZKUrIFHLZAqsPwyeDJFtBaIAmcJBBctUC6q1jtJNJenqRrt++hzTW7KDUlhYrz0ik/J43Skp9TzB4+IIFTXb+HXp5VQ+/M3y5toF8ckUlXnVlIP+vZUfo++ZAo5UBijrfwyDLpzSpa+E2Trb4vKUinsSOKaEDvLOIBKUm6FjgggLO+ooUefq2Slq1u1lXd/s+8nFQa/dtiOu7IbJ7S7MdrzyHbNXBWbmymB1/dSqs27vKkDzt3SqFRFxXRkGNyKPUA54PaHXCglfp2bTM98EoFlVft9gQwxkQy0lPoxgsK6Yxju1B6mvHtgXHfboADLeYXK3bwCFNFVbV7fOk9SF/XnJ1P5/4ynzIOMDEj4YGzl2XqT79ppIderaTtjXt9AYwskxGn59Ilp+ZRVuaBMQQlLHB279lH//6ygR59vYqaW8JjNTlvSBe67PR86pLdvgGUcMBpYbblvYV1NPmtatoT3AAjG3Qinp06KJuuO6eQCnPb5xyWMMDZyaPKmx/V0vPvbovooLDfHH90Ft14fhF1Y51Qe6LQA6ehaS+98sE2ev3DuoRu9369O9KtFxfTwSUZCV0PUfjQAmcb25CmvFtN7y9sEGVtF9fepR1ozKUHUd8eiW3OCB1wKrbtpslvV9G8pY3tAihmlSgtYgCxOePoXp0S0pwRGuBsrNxFj/6tkr76YadZW7fL54W5aTwCFdOgw9kelkA1DBw4P5a30EN/raQV69zZkRKorS2LmpOVSrdeUkwn9WN7WAKYMwIBDswCK9Y304RpW2l9hTd2JMteSaCXHTNS6CY2ZwwdlMPmjPCOQb4CB2q6r75vpInTq6iyVo0dKYEwYllUmDOuO7eQzhqcG0pzhi/Agafdwm92aFNSXUOItXaWXRncyyvOzKMLTsmnTjwahYWUAmcPI+bDr7bTY69XU+PO8JgFwtL4Tstx4a9yacRpeZSTFbw5Qwlwdu3eR7MW1dPjDJgwmwWcdlxYwp92bGf6/TkFVJATnDbaU+A079pHf59XS8/8PbHMAnAR3cEaamipE4lO6N+JRg4vppJ8/wHkCXCamvfS9DnbaPrsxDILDOiTSacf15mGHddFw8vMz+vppZm1VFGTWIz7wMMy6Rb2TOxR7J85Iy7gQKz+x6d12pSUSF/qUB7qhzFgBvbNkhb765WNGoCWrkosZeSQgdk0bkQJZXSQVsvTh66BA0lp7DPltHh54jQuAHPFrwtsW6oBoDc/qqcF/5c45o8unVNp2p1lyhlo18B5kLW9MxfK1yV5Cu04E+vcKZWO75flCDDGLDfz1PXC+zU0Z1FiGFy7ZKfSjL8crC0yNNbFq3tXwMH6pEvu3uBVGZSkA8Cce3IXuvCUXOrcyRvxNZEAdNslRXTm8a28m4oGdgWch9kY+e6n4RxtVADG2PANTXvo9bl1NOPj+tBKYh07pNDM/+mlzPLuGDh7WWI99eYfjW0Z+L0fgDFWMuwAmjqulHp1U+P341gBsDVkNqYgACMAhCnwSma2MR1iBJrNPFCYRPkvv9+pDDiOR5y5XzfQPS9sFW0X2DVIwFhVOky6IHgbThlTZlVc1+8cjzifLN3hOjMvIoYVMKJuUCbiLwwAWr1pl2byUbFti2PgzFsSDHDCDhgBHHENC4DAWqhYYeEIONsb9/hutEw0wAjgiGvQAFq+tomBkyOK49nVEXBWs5unX5TogDG2kwDQvGU76K2P6sgvc8YnSxrpVz8PGDiLvvNH9f67M/I8VdwZOzHI+5P6ZxP+YM6AJ6RqKWw+A1UFOXKL/kCxyr13aQa9endPTcT1StvrpNGWrGpkhZ4/O13AwPoa1/UENoeoJPhD1e/wvk62gQNfmxreO08lYZmICkYuVplXbWqmi+9eT6MmbdFMKbg3o1nseoGlyF4B7KT+aoGDevy42XsWwzZwyqu8z1zfOXCmCmJ14xY2YF4zcVPblAFnrlGTNhMAoieEu3lSuTa9TH67hq7mOFYA08e1+j3AxLXDKo7Td59/6z2LYZs5XqLYN2VA30yn7eFJ+CXMaxgJ4AH/gT9Mn+BDjN6BeHbncxXadGOM7+QeIyw+GpW8zrsL6tnVtNBJsWKGtT3i/OsLtS4FA9kbLwiK9cWv3tQSBRpRTq86W/VH09C0j7Dbh5dka8RBlt+tMZ/3vShQrA70Ig9ZGsYvHmqAocfmaB6CmDqxASWmJJlL6WnsRegF4aOZ/bnaD3NTZQuPnt4ZPG0BR/WeeuisIJhi0enIv4JvMC3de03XiLIAPPiDHuaB6VsjOhjup16QHx8NWA0vgWNrqlq+Tq17aP+Apil0OpheTEcAjxE0RlCM4+1J9OLzMX28kYjEqGfMz8t7bHvnJdkCzrxl3mZqrMDAgBhjlOMN1uKChvPefXZGvRuGF2nh8Q+g84pU8znLeQtfbLTpFdkCzsdfq9E+ikoM6NNJ/PT1CpH77Z+AM5h3ibBDABeW1YBkEpmdNGRh+vI0qZoq67zTw8UEDsTQXd59WNK28Vt/o9fJiAI5KcMxP42QL/IaLK8UgX58PMs93EomJnDWbFYsTQXA31wzcWOUkdEJAOC0DoI4fjMrC53EFUA1XgFc8Fkqaf5S71iOmCVdvMLeSStuKyy+Xrfx3cQzKvOQxtcr7QsAS3VhwVhjxYcX/I5qIeEjD1mOmMB5b4Ha1Qxeioh2QQSx20hwdbBDMIQaFX8A4paa+E0yfXtEl8tOmeyGgcETPlVekCVwWnjXCdWGzSAkqvNZgjIS/GOM9iljGExJE6ZVGR9r9yUF8Xe6H6OvVwZPSwXg5mq126zBRhOP+wSmB/Ar+OIxiowdUUx9bGhHz2BlHvIW0xPSwSpN2Kbw+/wh0Yv4MNIANMbRBqiBlGVHlJciTvfQK72QLsmon4uXN/LBbfFLsZbAWbba/rwfVUIbD+LVXbwws6bNjgReA1btf048xEbOpG04oN90AFrgu6Zs1UwLb/F6cQARI8B2tvMsXdmkKQmRMACH/WlAsAFhFBo53DsDIkCo0jtw5mcNdPV/xl9eS+B8+KVa/sZKdwH70IRpldoXftmwPB4F8rTOEv8wrXhp3wGIHrmxG1374CYNjOg8Ywf+8dwC3lItshyiPF5de7N0ZczXq7SRDlgP+FZhpWc8ZAoc6BiXrFQtisuHTHzFGD2E9AP/l/nLGrURAJVdubFFuoOEjOl10jgQiWFSkO1Ocf15BRp4UbZ4ptdY5TmGRxyhlIwV1u17sCCHdI2PJzMFTnWdYq0f19pM6YbRRoBGNI5sBBDvxBXTlVN6kac7gBI6lPuuKeEyZUQBB9PTif0701lj1mrlwnRyA09Pdvgpp+XxQ1hYsqopbuCYSlXfb1A92pj734BJRGdZUf/emVFhADYAwS796bktGk8DwAGYT7xdTTLTw2B2LtfzUwiLEVEFYTSLVfd48/23B75Vpr0jG67jLbA+PuZyKxpzaRHd8sSWiCCYii4blq+tEhAvoMWd+Vk9vTKrVnsEvxmQTDLSXuj+GUco8ExXDCuge64u0SSu1eyLg3KCcYZ7qV8EocFL/s1Y7m9+bCawIvFwOabAmbNYNWNsvd+YXuJBxcF73M++MkaCGIyF/1hycssTrXwRwCMAhPCYWh4b2d0YlTCSGPmJO3kUuo/zQXogiOd4ZqQTFDqZQ2iYbczQ4/sqXuFZnGfa/TFzk8Zs3KnesOnEeQlD9zjW0VgR+CVIX2CkjYSpBQvhBBjE+zNYrDYCB6PQJbziQUwXMr0N4p9o05ou8nJy9cPguWL9TgaOe0c0KY+zVvH5CmBEYynMoHATBE2vHUkGIrvocBFXXFdLlryYMeeIA8CYgUakqeqKcik3eMa5r6EUOIv5GGaVFEtshsj75Fv7R47BLNHYJTOloswmFs/yllmfq53KY7WR3fYwCzc3To9A6VQ153O1wDGzyQAwb7KxEZpbvTgea3TSN44xLPgbTGFGnglxnuQDYY2EDgM/1frVp2g8zsqNu1hE3xExAkF4gAR3OTPTggBELLntylMrzBrxENoIU6wqgo8V2tjtyBYFHGynv6lKrY1K9vWjgeDbYpR08BwMKjrDDglfGYQdzZIZdkyHdAYAncgMbR/W02xv3MfM87aIvAAYKPlkABt2HGlmBex58xTzUALUYMBnsSSGsuGZvuzZLFYbeSo75RdhAJyXZoo7NVf4WvU7VK6EjZVjVG9gR1HV1MdEFNc3vL4McNG0+wULXxnwOgABGF0Qvl6zLxjLXG48rzAmH4WVDlD6TZxe2QYSM14IbhrxAEeFclHfpvi9eEWja+BE8TjfrFE3PKKwVowxRgUZ2XXRxJpuwdCewWCw4xOMPLF6wQ7zjbJhCsNqiFhDvNlHIKuf7BnKo5rPeW+Be4/AKODM/cp9YrIGMD6zaozhmjtDVJE0MECra0XgL/S6G4TFdBGLxow4KFaQqPfgozCtmRFA9UeL92bxjM8H9HU3jRjTMbuHwRM+V24oYqrC2Qyqt9i30hhjaNcP79hDBnoZfL3QpK5m4+YNwwtI77ciGGojaJaweycYV2iBJzPoxEikb6TzGKhGZlr/3uo3pk6MhMZ0vdzbpy9v/qiaYPB0cxZ6BHBqG7xxK7SqbLeC2KOAiA8e5bGRHTWfXsF8YisSfNEYucQzEV5/BT8D1wt0MMAIBeBdUyr0Qfh5fF+0UfMsLOgRmcRx40RJ6jYb+Fy5AU7EvPAD22ZUE6QaJ4S5HuK0ngAYACMWHwGJRxDAY0xHP3KJcE6uRuAZfYacpCULG48tSZae7Jlbn6sI4CzgczNVk16xZzcvM7Bh5Dn35FzC9ICTYYwMq1FfZLy3m7+dcMa87cSxCoMpWGYjs4rj5h18rtxwORFT1YcemNtjFR6jBBhdiL92aUt1tG8QpqrHRnaLkIagwxnPBknkATDplXN283IbDqMgOtuudBYrH7RRrBE1Vhp238P3qig3Agoxo7aFxil38KH1g2BYBONnVzeDTjFSq0gcyS+B0Z0ypocxaNv9Kmau9eREsaiPJ34b00NnQ7SPl6BWUOlWYSwffK+cAqdtqlpXEdmoxsS9voe0ZNdWBN4BU5KYDtxIQ2COjZLX/Dg3UxCrJETboLOx3Rvycksw7sos/G7TsxPPje9V21kOr/5rGz33jr+HsEK7O2VMqWfDu6yRAE7YpGRaY+SPnT/dEEYroZWWxcdUajX6yeIgTbHcR/Ze1bMOPO/MfuRQR8m3jTjvx6FFdJSjLjB0IA/wSgZVhI6Ai6cMNMgT+WNacEMTplkfhAL+RG83i5WHYIZl03KsuPG+bzV4OlPFaMDZvUe9YdOscsLKbPY+nudY7hqrIzAtOJ1asDOXGRhFeTGtOlEu+skMizLqrxu2Rgsg+vfG3xpw6hujmU9jQJX34D2cdp6d8sCuZObYpY8PxaCdkQejgnE7NwAEbhj4EzwY0sZGTXbJb2ZYVq4fy53p8DSpqsGjheiyAtl99iBbnLsVpnu+5OReNjnAFzmbOxgrMKEIRD4zP9tOL7ODuxiRMPLgxN/LWdl4IofRi9XCz8boJwQ+xrj9G8wkIJl7hqwtgmCGZeWo2OZsxNGY41iMniwjFc9kuhkV+Yg00cnGlRTiHa4YQQSw9M/Fu2dZ9HcyHRnTCIoZNpYD99ezXg0rQ+ySNlXl8nHDYSAwlCqZZWMdMSpgijEjM9AgPEAeD2iCZIZl9T20uzNTkIaYTh1TqcdBbbpAWbq+PVPJLMsq4XZPGitQyfIxPguaGTaW52iHnoBtQ81YDzSexsK4vVfFLMvKg+W/RgJDDbfTR27sqv3JHMwwOmKqcUNhYIb15cb57BkOx4024BzVK5N+OcB82NZn5MdvMMt2Nctuy4OON9qDwNc8yov34CaKqazVtaO7dEpzo3kOCzOsb7M/nG3fbijitQEHD+74rxLKCQm/g6kA25yAF1BFsu3XzPY71u9vLMrjdLoCUMc/Z604FGn7dX3q1lLKcLHlSQRwsGfKC2PNjYR+VUbko5pZhj+OfhrCaGMmWYARho1MEJhqs7AijP4aNmYYZbv2nHw64mDrNfz6Ouh/t9mq9A/h/T76qej10vowfv6GA5ZKFwkoH3HYB3Q8UBpaEUT4roXOJSqj4tAqDz/eAfiytfh285YCB5Gff6+Gpn3gzo5jN3Mn4eA7jI5NRAIz7LfF26qdoACdNr4npUbMN1Yxot+ZRr3y1/nUr7f11xednLonfjDLKkofNmY4nV2Y4JEQD2jQTqbASUlJoYev7055nU2DqGhn0zT9YJZNM3f5IozM8NO3lVJWZqQDnJvqWaKiQzozy3eUEWMoFKSaWfaykmFkhkddVOSZLdASOGjIvM5prNfo5mWbxpWW35plt4UNm2b41EHZdPZg+xb7WPWOCRwkgA2VrzorP1Zavr33U7PsplJh0wz3OKgD3fG7EjdVMY1jCziIPWJoPh13ZHwL2ExL4eJFWJnlsDHD0M09O7oHpXrMbtgGDvr2/mu7UlFe/IyVC5xERQkjsxxGZvj5cT2oU4bHqOHecAScNIbtVNYspzmKFdXnnj0IE7McRmZ4/OXFVFqkZv25qQLQqndX8OGu1z1cbhUk+S7gFjjrxBy65cJiZaVwNXYcfnCm5jGmrFTJhONqAfgYjbpAHWhQOFfAQUQY+IYMTEwTAMrfXikrM4WeHFWqXPfmGjho+PGXl1D3IoceQO2gx+CK8Np/9yToRsJGU8eVuXKTcFqPuIADEQ+rFWH/OJAIO5KX5KfTzw8Lj3oC7X/ftSVaufzoi7iAgwLCX/l/by/1o6yhyQNrkKr4DO8dPm3SYKfiF5ySS4OP9m8EdCVVySryzqf19Ojf5OdVysInn3nXAvBieHyker5GX2LPGBTYQb5d00SzF7nfqUFfMC9+Y4+cw9nDrQfrMrpkp9FWPviivGo3zfiklpat2r9ycdDhmXTOSbm0gg9038cbIR57ZBb1PCiDsIPHou8aac7iBm2EEWW6/bdFWnpffN9E//ikXjwO5JqTlap5MfhtiPZsxEGr7eVGv/KBjbRui/q9kq16KZddQZ4bXcaHXMiZr728DdB9L1fQ3C9bQf7nK0toyDHmw3w5b+x09YQN1NTcun/QG/cezPvJpNH7fNzRQ68GO8q+eW9PKnS4KZJV29l9FzePo88olWH/zG09KLOj9ypufT6xfl/KdjUBmm/XNmvejC/OqqHveEQBgakffnLkvoIiTey8OmNeHd09tYLm8zb8oO7sMQcPxLDRQ9d3DQQ0aAdPgYMEM9kuMnVsGX4GRkN/0XpoCHZRvX1yueYC+9L7tXT9w5uomvf2BQlgGQs5bc42mvRGNX28ZAevSKigRXzcMmjQz7JsHwtgTFPF/YjT87QyqUjbTpqe8Tj6zODTetcVxXTPC5X6x779vunxcipjV4Lq+t1t08thZRl0+CEdqYVPwAXJTsHFOV1T343cXGo6A+nYI1rXm4FfgiEzaAJPBtfeIEkJcFChUwbmaMcT/nO+2uN5ZI23ns/bKi3uoK2MwLkRBTlpUZpUGTO5UXL4ycoN+7e468vg++jrYJl/eCdM+EP3qPrI2kHlM2XAQaFhL/lhfQt9v36/BKOyMiJts+U0m5nJxWhoRpmShWmCIUac9LRgeTeAPSzeCeataNa6Dp6jopNuLqXhf1rDKzJbpwgH0V0F7cSM+YjTW89Z2M3szNssen/B68RwgClA8NhN3TSPxhTJUaZpEmD04V0pBBl3GRXP/bo+fnN3ysmSS4p+lUHk4zlzLBIWVyxmh/3ELzqqV0dK/6lW7y2sp6dn1GjnUwA0EKF7d29d8iPzKYLvSv8+kUuCzj5pv5/ud2v8HTn1bQbX3X68vj8spBw4qChsO3/5vT/irH49N5b3CkemIxlQ2ExAbLfWMUNedfjmIizoolNzadh/tAJnQ2WL8gPgtEwl/7DqEq67YSKlU5W+oscflU2wp7wxt07/2PPfK9a1ELYlgxHykK4ZNO2uMtrDWxwaRxjcQ9L6Qcf8ojCIN5ndEvS0nfdIHPd05AEi+vcqf4Mnu/eq6GOzVeZpJ235Z2cnposw1/2m0JfVoXc+y9vyl++XhgCS3QyeBd+ybmbK/jXxEM/1BJ5IHw/3S1Y10R3Pbo4Ybep8OGUH5fJq1aW+jl799tTkYKdQOPPz/PHrqH6H+p1OwdNgp7EGPoNzFW+EZEbC5LCebVOX3b+RYLLo1a0DS4MtbXogs7gqn8Pr4LCySHCrzM9J2r6OOCiYtjqUPe/9ILg+4HQUK9DIylHXsFeLpxfFZeFUPsNmjmEFDertO3CQaUGXdN4irRt+JknSAnDJdbL3jiQJ5Y8CAQ5qNZDPm4S9JUmRLYBVl3DJDTv5zuPoGwS+L6Of3swKOrUnD+vzlP3uWdJB0/E08tFLkMqCItjPZjxwiJIFdF7XKVDgoDIQlS++ex1V1bIIc4DTS3eWsQOZmgV0XjdtYFOVqAhEZdhf4t3oR6SXqNfR7FWYKKBBGwcOHBQC9pdnR0cq3fD8QCHsdCo01IlS58CnKn1Drd/KepT7NuoftfvfXh857VeDhQo4qDS0tS/OrKHps8OzcaWKzsDKhD+z9BSEv7AX9QkdcESloGFeyur+tez4Xl4drPO7KFO81y48JePwkH6HZmo7ncWbXpDxQwucIBslmXfsFggFcxy7mMkQYWuBJHDC1iMJUp4kcBKko8JWzCRwwtYjCVKeJHASpKPCVswkcMLWIwlSnv8HFoZIJ+yuZZUAAAAASUVORK5CYII=;" vertex="1" parent="1">
          <mxGeometry x="18" y="223" width="142" height="136" as="geometry" />
        </mxCell>
        <mxCell id="XfLr7eq2wdfiriw6Ghye-4" value="" style="rounded=1;whiteSpace=wrap;html=1;direction=south;fillColor=#60a917;strokeColor=#2D7600;fontColor=#ffffff;" vertex="1" parent="1">
          <mxGeometry x="264" y="146.5" width="60" height="289" as="geometry" />
        </mxCell>
        <mxCell id="XfLr7eq2wdfiriw6Ghye-5" value="&lt;h1 style=&quot;line-height: 120%;&quot;&gt;&lt;font color=&quot;#ffffff&quot;&gt;&lt;b&gt;KUBERNETES API&lt;/b&gt;&lt;/font&gt;&lt;/h1&gt;" style="text;html=1;strokeColor=none;fillColor=none;align=center;verticalAlign=middle;whiteSpace=wrap;rounded=0;rotation=270;" vertex="1" parent="1">
          <mxGeometry x="51" y="276" width="491" height="30" as="geometry" />
        </mxCell>
        <mxCell id="XfLr7eq2wdfiriw6Ghye-6" value="" style="shape=flexArrow;endArrow=classic;html=1;rounded=0;fillColor=#60A917;strokeColor=#2D7600;width=18;" edge="1" parent="1">
          <mxGeometry width="50" height="50" relative="1" as="geometry">
            <mxPoint x="350" y="271" as="sourcePoint" />
            <mxPoint x="536" y="271" as="targetPoint" />
          </mxGeometry>
        </mxCell>
        <mxCell id="XfLr7eq2wdfiriw6Ghye-7" value="" style="shape=flexArrow;endArrow=classic;html=1;rounded=0;fillColor=#60a917;strokeColor=#2D7600;width=18;" edge="1" parent="1">
          <mxGeometry width="50" height="50" relative="1" as="geometry">
            <mxPoint x="530.5" y="322" as="sourcePoint" />
            <mxPoint x="349.5" y="322" as="targetPoint" />
          </mxGeometry>
        </mxCell>
        <mxCell id="XfLr7eq2wdfiriw6Ghye-8" value="&lt;b&gt;&lt;font style=&quot;font-size: 33px;&quot;&gt;HTTP&lt;/font&gt;&lt;/b&gt;" style="text;html=1;strokeColor=none;fillColor=none;align=center;verticalAlign=middle;whiteSpace=wrap;rounded=0;" vertex="1" parent="1">
          <mxGeometry x="410" y="214" width="60" height="30" as="geometry" />
        </mxCell>
        <mxCell id="XfLr7eq2wdfiriw6Ghye-9" value="&lt;font style=&quot;font-size: 20px;&quot;&gt;&lt;b&gt;Kubernetes API Server&lt;br&gt;&lt;/b&gt;&lt;/font&gt;" style="text;html=1;strokeColor=none;fillColor=none;align=center;verticalAlign=middle;whiteSpace=wrap;rounded=0;" vertex="1" parent="1">
          <mxGeometry x="-27.5" y="370" width="233" height="30" as="geometry" />
        </mxCell>
        <mxCell id="XfLr7eq2wdfiriw6Ghye-11" value="" style="shape=image;verticalLabelPosition=bottom;labelBackgroundColor=default;verticalAlign=top;aspect=fixed;imageAspect=0;image=data:image/png,iVBORw0KGgoAAAANSUhEUgAAATgAAAAqCAYAAAAnFkdOAAAKrWlDQ1BJQ0MgUHJvZmlsZQAASImVlwdUU+kSgP9700NCS4h0Qg1FegsgJYQWiiAdRCUkAUIJMRAU7MriCq4FFRGwgK4KKLgqRVRURLEtggp2F2QRUdbFgqiovAscwu6+8947b86ZM9+dzD8z/3/unzMXALIiVyxOgxUBSBdlSUJ9PenRMbF03CBAAyIgACzAc3mZYlZISCBAZMb+XT72AGjS3jWfzPXvv/9XUeILMnkAQCEIJ/AzeekIn0b0FU8syQIAdQDx6y/LEk9yG8JUCdIgwg8mOWmahyc5YYrRYComPJSNMBUAPInLlSQBQKIjfno2LwnJQ/JA2ErEF4oQFiPslp6ewUf4BMLGSAziI03mZyb8JU/S33ImyHJyuUkynt7LlOC9hJniNG7O/3kc/1vS06QzNYwQJSVL/EIRq4yc2YPUjAAZixLmB8+wkD8VP8XJUr+IGeZlsmNnmM/1CpCtTZsfOMOJQh+OLE8WJ3yGBZneYTMsyQiV1UqUsFkzzJXM1pWmRsj8yQKOLH9ucnjUDGcLI+fPcGZqWMBsDFvml0hDZf0LRL6es3V9ZHtPz/zLfoUc2dqs5HA/2d65s/0LRKzZnJnRst74Ai/v2ZgIWbw4y1NWS5wWIosXpPnK/JnZYbK1WcgLObs2RHaGKVz/kBkGbJAB0hCVADoIRJ68AMgSLM+a3Ag7Q5wjESYlZ9FZyA0T0DkinsVcuo2VjS0Ak/d1+nV4T5u6hxDtxqxvQz0Ari0TExNnZ30B2wA4xQCA2DnrY2wHQEEDgGsVPKkke9o3dZcwyP+AAqACNaAN9IExMAc2wAG4AA/gDfxBMAgHMWAx4IFkkI50vgysBOtAPigE28AuUAr2g4PgKDgOToJGcA5cAlfBTdAJusFj0AsGwGswAj6CcQiCcBAZokBqkA5kCJlBNhATcoO8oUAoFIqB4qEkSARJoZXQBqgQKoJKoQqoCvoFOgNdgq5DXdBDqA8agt5BX2AUTIKpsBZsBFvCTJgFB8Dh8CI4CV4K58J58Ba4BK6Ej8EN8CX4JtwN98Kv4VEUQMmhaChdlDmKiWKjglGxqESUBLUaVYAqRlWialHNqHbUXVQvahj1GY1FU9B0tDnaBe2HjkDz0EvRq9Gb0aXoo+gGdBv6LroPPYL+jiFjNDFmGGcMBxONScIsw+RjijGHMfWYK5huzADmIxaLpWEZWEesHzYGm4Jdgd2M3Yutw17EdmH7saM4HE4NZ4ZzxQXjuLgsXD5uD+4Y7gLuDm4A9wkvh9fB2+B98LF4EX49vhhfjW/B38EP4scJigRDgjMhmMAn5BC2Eg4Rmgm3CQOEcaISkUF0JYYTU4jriCXEWuIV4hPiezk5OT05J7kFckK5tXIlcifkrsn1yX0mKZNMSWxSHElK2kI6QrpIekh6TyaTjcge5FhyFnkLuYp8mfyM/EmeIm8hz5Hny6+RL5NvkL8j/0aBoGCowFJYrJCrUKxwSuG2wrAiQdFIka3IVVytWKZ4RvG+4qgSRclaKVgpXWmzUrXSdaWXyjhlI2VvZb5ynvJB5cvK/RQURZ/CpvAoGyiHKFcoA1QslUHlUFOohdTj1A7qiIqyip1KpMpylTKV8yq9NBTNiMahpdG20k7Semhf5mjNYc0RzNk0p3bOnTljqhqqHqoC1QLVOtVu1S9qdDVvtVS17WqNak/V0eqm6gvUl6nvU7+iPqxB1XDR4GkUaJzUeKQJa5pqhmqu0DyoeUtzVEtby1dLrLVH67LWsDZN20M7RXundov2kA5Fx01HqLNT54LOK7oKnUVPo5fQ2+gjupq6frpS3QrdDt1xPYZehN56vTq9p/pEfaZ+ov5O/Vb9EQMdgyCDlQY1Bo8MCYZMw2TD3YbthmNGDKMoo41GjUYvGaoMDiOXUcN4Ykw2djdealxpfM8Ea8I0STXZa9JpCpvamyablpneNoPNHMyEZnvNuuZi5jrNFc2tnHvfnGTOMs82rzHvs6BZBFqst2i0eGNpYBlrud2y3fK7lb1VmtUhq8fWytb+1uutm63f2Zja8GzKbO7Zkm19bNfYNtm+tTOzE9jts3tgT7EPst9o32r/zcHRQeJQ6zDkaOAY71jueJ9JZYYwNzOvOWGcPJ3WOJ1z+uzs4JzlfNL5Txdzl1SXapeX8xjzBPMOzet31XPlula49rrR3eLdDrj1uuu6c90r3Z976HvwPQ57DLJMWCmsY6w3nlaeEs96zzG2M3sV+6IXysvXq8Crw1vZO8K71PuZj55Pkk+Nz4ivve8K34t+GL8Av+1+9zlaHB6nijPi7+i/yr8tgBQQFlAa8DzQNFAS2BwEB/kH7Qh6Mt9wvmh+YzAI5gTvCH4awghZGnJ2AXZByIKyBS9CrUNXhraHUcKWhFWHfQz3DN8a/jjCOEIa0RqpEBkXWRU5FuUVVRTVG20ZvSr6Zox6jDCmKRYXGxl7OHZ0offCXQsH4uzj8uN6FjEWLV90fbH64rTF55coLOEuORWPiY+Kr47/yg3mVnJHEzgJ5QkjPDZvN+8134O/kz8kcBUUCQYTXROLEl8muSbtSBpKdk8uTh4WsoWlwrcpfin7U8ZSg1OPpE6kRaXVpePT49PPiJRFqaK2DO2M5RldYjNxvrh3qfPSXUtHJAGSw5lQ5qLMpiwqMhjdkhpLf5D2Zbtll2V/Wha57NRypeWi5bdyTHM25Qzm+uT+vAK9greidaXuynUr+1axVlWshlYnrG5do78mb83AWt+1R9cR16Wu+3W91fqi9R82RG1oztPKW5vX/4PvDzX58vmS/PsbXTbu/xH9o/DHjk22m/Zs+l7AL7hRaFVYXPh1M2/zjZ+sfyr5aWJL4paOrQ5b923DbhNt69nuvv1okVJRblH/jqAdDTvpOwt2fti1ZNf1Yrvi/buJu6W7e0sCS5r2GOzZtudraXJpd5lnWV25Zvmm8rG9/L139nnsq92vtb9w/5cDwgMPKnwrGiqNKosPYg9mH3xxKPJQ+8/Mn6sOqx8uPPztiOhI79HQo21VjlVV1ZrVW2vgGmnN0LG4Y53HvY431ZrXVtTR6gpPgBPSE69+if+l52TAydZTzFO1pw1Pl9dT6gsaoIachpHG5MbeppimrjP+Z1qbXZrrz1qcPXJO91zZeZXzW1uILXktExdyL4xeFF8cvpR0qb91Sevjy9GX77UtaOu4EnDl2lWfq5fbWe0XrrleO3fd+fqZG8wbjTcdbjbcsr9V/6v9r/UdDh0Ntx1vN3U6dTZ3zetqueN+59Jdr7tX73Hu3eye393VE9Hz4H7c/d4H/AcvH6Y9fPso+9H447VPME8Knio+LX6m+azyN5Pf6nodes/3efXdeh72/HE/r//175m/fx3Ie0F+UTyoM1j10ubluSGfoc5XC18NvBa/Hh/O/0Ppj/I3xm9O/+nx562R6JGBt5K3E+82v1d7f+SD3YfW0ZDRZx/TP46PFXxS+3T0M/Nz+5eoL4Pjy77ivpZ8M/nW/D3g+5OJ9IkJMVfCnRoFUIjCiYkAvDsCADkGAEonMj8snJ6npwSa/gaYIvCfeHrmnhIHAGoRMzkWsS8CcAJRIw8A5JHnyZEo3APAtrYynZl9p+b0ScEiXywHvCbp4Y6FMzllMj3D/6Xvf1owmdUO/NP+C9dyBhT0MPSSAAAAomVYSWZNTQAqAAAACAAGAQYAAwAAAAEAAgAAARIAAwAAAAEAAQAAARoABQAAAAEAAABWARsABQAAAAEAAABeASgAAwAAAAEAAgAAh2kABAAAAAEAAABmAAAAAAAAAJAAAAABAAAAkAAAAAEAA5KGAAcAAAASAAAAkKACAAQAAAABAAABOKADAAQAAAABAAAAKgAAAABBU0NJSQAAAFNjcmVlbnNob3SvBTEeAAAACXBIWXMAABYlAAAWJQFJUiTwAAADUmlUWHRYTUw6Y29tLmFkb2JlLnhtcAAAAAAAPHg6eG1wbWV0YSB4bWxuczp4PSJhZG9iZTpuczptZXRhLyIgeDp4bXB0az0iWE1QIENvcmUgNi4wLjAiPgogICA8cmRmOlJERiB4bWxuczpyZGY9Imh0dHA6Ly93d3cudzMub3JnLzE5OTkvMDIvMjItcmRmLXN5bnRheC1ucyMiPgogICAgICA8cmRmOkRlc2NyaXB0aW9uIHJkZjphYm91dD0iIgogICAgICAgICAgICB4bWxuczp0aWZmPSJodHRwOi8vbnMuYWRvYmUuY29tL3RpZmYvMS4wLyIKICAgICAgICAgICAgeG1sbnM6ZXhpZj0iaHR0cDovL25zLmFkb2JlLmNvbS9leGlmLzEuMC8iPgogICAgICAgICA8dGlmZjpDb21wcmVzc2lvbj4xPC90aWZmOkNvbXByZXNzaW9uPgogICAgICAgICA8dGlmZjpSZXNvbHV0aW9uVW5pdD4yPC90aWZmOlJlc29sdXRpb25Vbml0PgogICAgICAgICA8dGlmZjpYUmVzb2x1dGlvbj4xNDQ8L3RpZmY6WFJlc29sdXRpb24+CiAgICAgICAgIDx0aWZmOllSZXNvbHV0aW9uPjE0NDwvdGlmZjpZUmVzb2x1dGlvbj4KICAgICAgICAgPHRpZmY6UGhvdG9tZXRyaWNJbnRlcnByZXRhdGlvbj4yPC90aWZmOlBob3RvbWV0cmljSW50ZXJwcmV0YXRpb24+CiAgICAgICAgIDx0aWZmOk9yaWVudGF0aW9uPjE8L3RpZmY6T3JpZW50YXRpb24+CiAgICAgICAgIDxleGlmOlBpeGVsWERpbWVuc2lvbj4zMTI8L2V4aWY6UGl4ZWxYRGltZW5zaW9uPgogICAgICAgICA8ZXhpZjpVc2VyQ29tbWVudD5TY3JlZW5zaG90PC9leGlmOlVzZXJDb21tZW50PgogICAgICAgICA8ZXhpZjpQaXhlbFlEaW1lbnNpb24+NDI8L2V4aWY6UGl4ZWxZRGltZW5zaW9uPgogICAgICA8L3JkZjpEZXNjcmlwdGlvbj4KICAgPC9yZGY6UkRGPgo8L3g6eG1wbWV0YT4KGI+xPQAAGRVJREFUeAHtXQdgjef6/53sIbKXyEQIIjFiNLFCEap03LbqXroXWtWl2v+tDqoU9yqtotV7S9urF7etLUEIpTZBzAwRmRLZO//neU/OPierOcbxPXpyvvO9+3nf9/c97zO+yrp0jaiDRBIHJA5IHDBBDpiZ4JikIUkckDggcUBwQAI4aSFIHJA4YLIckADOZKdWGpjEAYkDEsBJa0DigMQBk+WABHAmO7XSwCQOSByQAE5aAxIHJA6YLAckgDPZqZUGJnFA4oAEcNIakDggccBkOSABnMlOrTQwiQMSBySAk9aAxAGJAybLAYs7ZWQ2TjZw6+qGmqpaXD+cYfRu2XvYw7WLK8ryypFzJtvo7d3KBmxd7WDjbENNUhSeIhBPJkP5jTKU0Ueiu58DkZF9UVNdg8QzSSguLrn7B2SkEdwxAOc32B+RswYidXfyLQG4Lo+GoMfkMJxec9rkAK7rY13R46lwWjJydKuDjP4BJ1efwLHlR4y0lKRqbyUHJk96HKGhIXjzzdnYf+CPW9n0XdXWHQNwcq7VKQUOo3ORJBrQR6aQcIzeYOs0YONsi/L8hqWw9N/TUVFUIcc3GqZflB88enlRB+6ywTaDZc7OTsjPL2hGCdPIaroz2jrzYxDgXIJdETSyg3jy88bI+CMD1w5da51WG6jlVgEOSzSoI0AVFw106A5JsrS3woRtE2FuZYbV/b9pEKuyTmSCPwqydbGDZ09vxU+T+ra3t8PmzT/A2soa90WOpim9d7Y8L927ZPnetjVnEOAKruTDZ0B7uHR0pkUjQ8exwdj4+HqSHsqN11mSqG7V8lRuhFvV4J/kGguc5lbmApRbVhUP9PZvB1/fdrh+PQvVpD9qDZIRY6ytrO6EobXGcJpch1i2t386m9zf25XRoBW1troW+z/ei7qaWtoWdbBxtEG/GQOM2k8ZP31v1aRRO0J6UxMZrdpYgSVXKwfaME0kPjJyGXNLAp9mkMzcDA7tHODa2RWWdpZNK8l9NjhjDVWhQHHFd0N5WyfNw8MNvXuHYfCgARgz5n5Mm/osVq1chJ//8w369OlpsBE+anbqFARLyybyRNREjKm9dWNTdJ6lx2Dqq4NDG8WtBr8ZjL08PRDSpRNcXV1IQ9K0xW5ra4tOHYPg4uKkrJ+XQW1t4+UdHduic+eOcKLve5EMSnDMjNxzuUhcm4jQSWHiSBQ0MgiXt11C+v6rRuGVoSVqYWuB4QtHwL27O/LO5WHnjB2oKqkUfej5Qi90nxiKMz8mkgL9qE6/Ri6NgWeoJ+JmxuIa6aaUROhmVst4KoMzSalR7w0kq6obYCZfNKm7UrB/bgIqWZelhzzDPBExvR9Zft0FJleXVyPzWCbObziHtH1pekrIb7EU1vPF3gge3wU29pb1IAsUXSvC6X+dwoVfz6OufrNa2FhgwvaJ1Enqk2AOmQvoe9Kep1BLN7jvrLX8Y+FBUc5Qo/J8hlJb776dnS3emPEK+vbtCTc3F6qYeSnvZ0VlJSoqKnDx4hWNjapoPSysG16d9jy6du0sipWXleP4idPYuGEL9iUcVGQT3zY21ti65SflPcEF2vG74jbQPdVoFy5ejt9+267M92cunn/ur5g48RG8+daHKCwswjtvT0WXLsG0XOTrZfeeBMz99J8GLZrjx4/GM08/AQ93N8ER7ktqchqWLV+Nffs0x6fop7W1FWa8/jIeoAeEmTk/QOtI+s3GvM+WyOdfsSwUBeq/LSws8NyzEzF27EjBawVHCgsLcfiP41j5zVqkphpnD2t15bb/bBDguHfHVxyD3+AAOPq1ZZUVBsyMxP/oqFpVWtXqneetoE0W1gxuI+Hd2wt55/MQ99ZOJbhxXnNLM1jYWMLMgARlYW0Oc1tzyOqBS1k/IUUtLU637h7o/FAIygrKkPhDIhy828A30hf+0YGorqjGvtnxyiKKC6cAJ9y/eCQsCKDS96fhxvkbaOPtgIBhAfCO8MH2KZuRdTJLkV31TcMbOHswAocHCuC8QiBafL2IeOsI7z7tMODdKJiRju3curOiTF1NHVL3pNI1gbGljOoPFJs/NT5FAB6DG0sBOWdzVG3ouaoTUio1roe/erK36JabmysWL/oIHUnSiIuNRwJZ9uxI8rh/xGD0CO2K77//Gd+uXktSh+5jLCDAFws//wgsEe3ffwgXL1yGVzsvRA+NImkvDNOmzcLJk2eU/aqhU0V8/O/0u44kPQtERw8SEtzevb+LNSqYQ8M9d+6CssyfvbCgdljPN3LkUEQPiUJ+wU38+ON6tKN+DhjQF0P5Xv5NLPh8mU5TXOadt6ehvLwc23fswbVr14lPgYiKGoA5n8zCy6+8jTPk7qFN0197EQ8+OBI3C4sRTwCam3sD4T1DsXjhx6io5Acv7xhdfi774lP0CO+GtNQMbNkSK0DXy8sDQUH+GDZ8EPhh8vCjz6CqqvX3sPYYbvfvRgGuprIGCXRUHbPiASFIsP9Y7ykROLjgQKv3XUyW2nzxsS96wXABbjcI3LZP3YqKQk2JivWDYkHrmWjuoABNfYpnboc2vme4B45/fQwnvz3B2QV5hHpg9KoH0DGmE1Jik3E1QSWRWTlYYxhJk3ysjHsrFml7UxXFcOYnV4z+eiyi5w/H/yZuRFluqTKNL3q/HIGA6CACxDzEElCXZBYr09lvreOYTkhar1roNVU12PvBHpGHj8+BBHA8lHi+p8YnZSWGLjivPh4Yyt+C+5MnPSY27a5d+/D+3+cpa9iwcbOQdp595knY2dtiyZKVyjS+4OPdgvkfUJoN3nnnQ+xVk2Z++mkjvv5qAebNfR9/mzQFuXk3RFnemLM/nC+u27SxJ4AbKLB79ocLaJjNYYyookl/WAri/1iaWrFyDVav/kFZrnevHli6dB7GPzQaW7fGCd80RSIfLWfNfBVFRcWY9uq7OH/+kiIJwwlsPv5oJj6d+x4mPzVNwwo8ePB9eIikvjwaMwNg2lWVgW/cg6OIV9Pq6+H1ryJurwcBWGlxGV58aQYKCgpViXQVEhIsHjz3ArjxwEmwb5yyT2Xh7M9yqYIl8i6PhMCjh2fjBZudQ76IuJiZpRmGfjYcPv18kHshD9v0gJuiernkpznRijS+W0fD1E2lJUt7ISU2RQPcuFz26Ww6il8WGNLpgU6KqsR35/Gd0ba9Ay5tvagBbpyYl5SHJDqiWpPTsk9fH41y/GAIndyDHhK1SJizVwPcOCMbbxLJJ491ng0R87/5RGMV5Yyz+bk//fv3IR7LsH37Lp3u7d5zQLQ/fBhJWlo0blwM2rf3wbatuzTAjbMxGGzYuAWOzo6IoGOvYeLBtYgxhqvUSmHOcQtxBODq4MbZjh47hYSEQzCXmWHEiCF8S0l8rLW0tiFL7w4NcOMMsbF7cfrUObjTsfV+Ajt1mjz5cbH+/rPuFw1w4zy//LoNiYlJel2cOnQIENVcz8zSATdOYKn26LGTIs+98KdJAMeMOPrlYRRnFNMTkpexDJHvRTVbsd4YQ4UXHK0kmbkMQ+ZEi6MiH0t3TNGV3FR1Ebw18tQ2DAoyFGcWqapSu8o+nikWtEN7TeWs0NMRD9LiVVKdWjFcJ3ca3gouwayDUpFCV5d1MkcAoSqlOVck4wqJtTllKK9x9z7MST/k6ekuhMTUVDU9Z30309MzxGZ1dXGGrY2NRue7kAKcE+PpeKmPDh85Tt2XCWW+vnS+J59/44G3aEOMQCZ0YPr6wREFvAz5yKpOHYMCBft37UpQv6283hO/X4y/Q4dA5T0zUqcE+vuJcnFxe5X3NS54Tmlhiz2jlsD84n4w0M0kyZGNPfcyWTR18NVl1UiYuw+jSGnPjw7HAGeEPR2OYyt0FftNrVM7n5gzmtzBH0fDf5A/bly6ofdYqlGO0ashmKZkPrboX/58l1vVpeLMElHGwcdBI9EthBYMSWFt6H7g8CCd4m087UV+V7KsqhOXY2wqStc8Mqjnaexa6Nway6QvXTwA9I9TX/bm3qupqcHZs+eFbmco6c2++5fKAMB1DYzqR39lOH/xMspID6VOISEkIdN68iFgEBKe6Cb94T7T3Hp6yjdop2DitQGqozVjbOKV0hD/s7NyxTjaeatONhYW5vAP9BVjyc6hdD2Uk5MnynXo4K9MbdfOmx4E1mL9ZXO6HhJTKlikOfa8vHwsXPQVXnv1eYwbG4MHx46iuUlCXFwCduzcTUfefD21me6tJgMcsyAvKZeU45XCjYJxxTvCG1jResyp4ycSzVx5HumuCLTs3Cmmko572no3jRZpksVe0Lip+lG/T1Q31K4aEoZKWX9GG8/Szkro29iowsdmdu1g6vsab1pa8myqp3y8zHgTMPFz1Zb6rk5OHZw5G0S96gnNuSb+NCat6quO50puaNCX2jr3NmzYTKFDXUkpPgq7dicgLS1dVMwK7fHjY5hT2LkjXqMxNhB4e3sJ3r067TnqI3eUJXLuL2UV46Vvuufu1oAkwmU0am79HyxFinO2gaoVURTOrs7KHF5enmCLJq+Hwpv6TwpskeW+M8ArqH17bzH+0rIyg4YAMV7BKEUp1ff69b/hGB1Dxz4wAkPogdO9Wxd0pc/Uqc9gC+kIFyxYhkqyat8L1CyA6zu9P1jZzRu5jhTgB+a1rqFBVm9hO7ToIGxcbIVSfcSSGGx+/leU5mgq7FWTUw8uCnRRJYgrsRAoTSxQ7TRSd4l0rfv807qtNQtqBK7lSotxLb0IoCSrBHZe9jhA0mzRVW1pjGuTd6SKJF51Kk7nBV4HbYlQPU9j12I9GxhnQ2UFyDfBZ6qhOhpL27FzD8rJDWQeKczXrvmKLHjpsCYpxMeHHoI07lUr1+LHn9iNQ0VVVdXIzs6BB/mGffbZP5F+9boqsZ6PAlRoAKXkNmKY+MFoOLU1UoTxooE22NjBaywrU/XihuzsXNSSTtWMVC4ObdvoSK/cr7aODuTyIUN6hsrqLqQ6SrOj4zz7wJUR0OkjeXf0dyqZXFCWfLFKfNj1ZjhZmh96OIaMJCPIF8+dDB6z9FVpcveaDHA+/dujE0UzyFeSDKf/fQr5l+VWrVbhCs8T4YN8E9dh7+w9Qnrz6uONEUtGYesLm+XxlTqN8fNRXlYniW6w5MCbRHxrZ6D29C8PWlxkFOD+5FNEhzqxFGvnRY6dVPD6UfUNqZ5L9zoniVw5yEuXJbkWE+NnS4jHz4zlARmReoZ3R01trXAJcXd3JemjGmdJqZ2YeA4pKfr9rpKSLtEx1EP4/rVU+c1zy8KfUamRBlzJ74/7oa6DZCkp7Wo6AgL9yC/QlcBc95jq5uoqZuUSucYoKD39uthm3KS3tweuXElVJGl8yx/ajQ+c1Qf8YV+9FSsWIaJPuHA0ZgutqVND2ivl2NklIpJ8tBQgUZiar2N5VGZu6YWYJ96I8gljaSnu7VjcuHADToHOGL5oBMzJp02bainkhyfaVrweSDPVzMKMJDFSaus7wjSy4f2H+lNlMnDImjrlns+lu3Vop2UlVc+j7zqPnKapIJzIn9DR31FflgbvsbuOwgWCo0qaQ+w4zP5yZOQzGvERa8ITD+PIkZPkRvE95sz9B+YvWIpNm3YYBDfujNxtog59+/VqUd8qK6vEQ5FXjSNJQ8Yi+fI09DgEBkX1p+mVIUXLgfbSpWSx/jiiQx8NGtifbtfh4mXKV0/sEJ1Fki0vGD7iaxMbddq2dVCuB+10Q79P04OmvLyMysnAvof3AjVpyfeZ2hf2dCwT0hVxJeGTBHpvW03r80ecM1SLiKMVdk7fhpLrxeSW4oGhnw4jcV+zy0UZRbQ8yHpFEiYDiIKEm8ncaLBTLlerqrU+B00y63mCHwyGMBwoCtK3Vy9v+A30Rw05+qr7pXGWi79dEHo0dtbt/mSoWin5pXMHF3KM9te5fzPtJlLjk8kz2Uw4Lls7WmvkYf+6bk92B4OyPmKAE0di6rP/0ADNLGrj1kyQ/+IoCWaCb5TxFjXzt6a2RmzICRMeJgfdcPQkp9TwsO7g8CtDtIncJ9iBlY9QT1I5bWJroCFw4LwsJaWT4ywrKoYMidQozqDeWiQeLqSyGDt2BLp166xR7X339UVP8oXj97KxH5w6rd+wid7bVit0k9qgMohAL7xnd1zPyBQuI+rlNlEEButbX3hhMgG3ypLPY5r17msI8G+vvtyVRaPIoDNlyjPgqBJt4nfI2dCxt7i4GKdOyd2+tPOY2m9Zl64ROntffZC82Ud9FUPMlANC0rpzOPh56+reuL3gcZ3pfXBRSNmVgt3vai6Str5tMWbVWFiTlHZ500Xs+3ivErFsXW3xyPq/wNLWErnk0c/lWc/lS68I4pdnlmYROPb0QhyFd11VCzHr80ofEYJWTo7D7FB8dX+aKO8c5IwOMR0hIwvYoYUHlFEF6jzh+NGYFWMpgsIcuWdykHmcXEpoL7l0dIE3SXa1BEb/fXidjkHBnKIyRi0bBXcKHaspq6Jy5KuUUgBHX0d49vKEFb0x5PCSPyg87rR6c8rrYPLBi5wZJTaMeGMItcsOwjzWA/P249pBuWJfWaD+wp4suw/9SP5YVH/msQzRXw4Zc6cwsx2vbycgr9Eu0qLfsz94izz9o0VZlnIZdOTfFPZH1sDv1/wX637+Rafu4OAOWL58gXAhOXPmPE6cSKSHFb3ggcAtIqInqqor8egjzyodfbUrYMdXdomorq7G8eOJFPWQCCcnR0RG9sP8+V/g4KGj2kWa/fuVl58mZ+O/oKqiisJe60hSPYGkpIvw9/fF0KGRwlVmzpzF2LR5p07djz02DjOmv0QhXsWI270XGQRoHMMaPXQgqskC/fwLM3BB7YjKFbCUtpKOk2xlZgfn3bv2o7KqEtFDBsKc1mYBRVIEk2X5jTdn40D9++A4fnftmi/h69seBfTqqOPEhyuXU0jP1xbhPbqJKBOW4nkevvzyW51+muINczd3n9mGBsaxkPf/YxRsSOFOq5XAohS73okFHx9bm9i/zG+gH24mFyA5LlmjeraicpxnhxEdxVt/Gcwy6l/dxO4r+ZfzRYiUCHmiUCknAqlM0o/FvrGDLLH29KogLyRvv4xCNaMAA5FnuBf2z9mHwmuFQpLjEC03Ai+WTs9S2Nap7/Q7RJbllSEnMVsAmlsXd3iFucOdHJ85XIvfRhz/9z0oJIlNm9iJNy0+FW1Iv+dEYOjk7wQPAru2dGQtpzqPLD1MEuM5JXhrl2dH4qqSKnjTeBxJMvXq7U0g5UH3KpCdmIN8cqvRR1yGwZ/Hy+4r/NDyCPeEJYW48SuwtCMu9NXRlHvsy8ZHTlZw8+Y/ffocrqSkCUsiGxv6D4gQ0tyBA4c1qmPXhTPkuMrSWteQzgjtEYIwssh6kcvF0aMnMXv2fB1nV/UKuM2SklIhLQYQ4PSiIP9uXYNRXFIiogou0yb/sxRBLwgII2l0HTneHiPH3tGjhwspNSgwANUEPN+vWa9jRFG0yaDN4WX8gsowApqIiHAE0VjTr2ZgLh3lBaArMtd/s8R47PhpEXnAkl93MhSwlfpq+jW8/vr/CfcZNh7spNCvq/VRDrWk/9y0OZb4bQ4/Px+Edg9Br15hxFM6pZCOMJXyffLJImwgqfJeoQYluL4UTN5tQihjGz1Qycz/+g6jBdr/WYazRMKSHktJNyjygd+G0hzioyEDI3/fTC0QQNKU8iwdtSGjQ2VxJfgY2lTwZ2mKJU3WbxYk56PiZkVTmhN5WOJ0oGgKjpjg43tJNvns6Ynx1K6Qj/fMIxuSekupTBE7bjcSOaFdR0t/8xs0Vq1aLF6zHTNmggAkfXWxwzC/cYPBiV1N2FDRVGIJhl0s+EiXSdZMttDqi31tan3q+V55+Sn89W+P4Ye167F02TciBjYw0F9IWtxPBtjGyMrKSvSPpcusrBxyGs5sUv/YeZgddvnBcfOmtuXecKt8TA0kAwfzkEGwrEFLtOF67uYUg1ZUt27u4Nd615IIzZS8M/mOBTfuH+uoWJJrKTEgMjA2l9hthD/NJdYvtqQ9boclzAKSdJtL7LLAR2LwpxWJJYTJk58Qr87+lcKI9NE5kujybxTAlayJfr4+4N/6iDc+f1pCHF/JIGAUoqe8TDjn8eMeAjS0j5WNtcv6QkMW0YbK8pGWP82l0tIyCuI/39xiJpXfIMCxbunfUd+Z1GClwRiHAzm5eRg8uB/a0zGUg+31/U9QOEaTXSnYQnhJzWJonB4ZqVbSXwllq5Gql6ptfQ4YBLjWb0qq0VQ5wI6pR46cEi+4/GHtchw5egI52XlC6c/+X/xqINaJ8XGR35nWnGPnHcMztiKRXkx87phOSR1pjAMSwDXGISm9SRx4bfr7eOnFSRg/bjRiYoZRFAgBAkk8rCyvqKjC9p3x4BCiu9U9QRxM6YjKFlSJ7h4ONGhkuHuGIfX0TuEA+2mxQpzf88ZWPbaQcrylwkn5Tulnc/vhSjGmLIEqYk6bW17Kf3s4IAHc7eG71KrEAYkDt4ADrDaVSOKAxAGJAybJAQngTHJapUFJHJA4wByQAE5aBxIHJA6YLAckgDPZqZUGJnFA4oAEcNIakDggccBkOfD/qiz90zv5R1UAAAAASUVORK5CYII=;labelBorderColor=#000000;spacing=2;imageBorder=#60A917;strokeWidth=7;" vertex="1" parent="1">
          <mxGeometry x="593" y="276" width="312" height="42" as="geometry" />
        </mxCell>
      </root>
    </mxGraphModel>
  </diagram>
</mxfile>
